<?xml version="1.0" encoding="UTF-8" standalone="no"?>
<svg
   xmlns:dc="http://purl.org/dc/elements/1.1/"
   xmlns:cc="http://creativecommons.org/ns#"
   xmlns:rdf="http://www.w3.org/1999/02/22-rdf-syntax-ns#"
   xmlns:svg="http://www.w3.org/2000/svg"
   xmlns="http://www.w3.org/2000/svg"
   xmlns:sodipodi="http://sodipodi.sourceforge.net/DTD/sodipodi-0.dtd"
   xmlns:inkscape="http://www.inkscape.org/namespaces/inkscape"
   height="30"
   viewBox="0 0 30 30"
   width="30"
   version="1.1"
   id="svg6"
   sodipodi:docname="config.svg"
   style="fill:#000000"
   inkscape:version="0.92.2 5c3e80d, 2017-08-06"
   inkscape:export-filename="/home/iras/.local/share/yakuake/skins/miracle/title/config_up.png"
   inkscape:export-xdpi="96"
   inkscape:export-ydpi="96">
  <metadata
     id="metadata12">
    <rdf:RDF>
      <cc:Work
         rdf:about="">
        <dc:format>image/svg+xml</dc:format>
        <dc:type
           rdf:resource="http://purl.org/dc/dcmitype/StillImage" />
        <dc:title></dc:title>
      </cc:Work>
    </rdf:RDF>
  </metadata>
  <defs
     id="defs10" />
  <sodipodi:namedview
     pagecolor="#ffffff"
     bordercolor="#666666"
     borderopacity="1"
     objecttolerance="10"
     gridtolerance="10"
     guidetolerance="10"
     inkscape:pageopacity="0"
     inkscape:pageshadow="2"
     inkscape:window-width="3840"
     inkscape:window-height="2096"
     id="namedview8"
     showgrid="false"
     inkscape:pagecheckerboard="true"
     inkscape:showpageshadow="false"
     inkscape:zoom="9.8333333"
     inkscape:cx="12"
     inkscape:cy="12"
     inkscape:window-x="0"
     inkscape:window-y="30"
     inkscape:window-maximized="1"
     inkscape:current-layer="svg6" />
  <path
     d="M 0,6 H 24 V 30 H 0 Z"
     id="path2"
     inkscape:connector-curvature="0"
     style="fill:none" />
  <path
     d="m 20.542664,15.730847 c 0.02983,-0.238644 0.0522,-0.477288 0.0522,-0.730847 0,-0.253559 -0.02237,-0.492203 -0.0522,-0.730847 l 1.57356,-1.230509 c 0.141695,-0.111864 0.178983,-0.31322 0.08949,-0.477288 L 20.71419,9.9810169 C 20.624698,9.8169492 20.423342,9.7572881 20.259275,9.8169492 l -1.85695,0.7457628 C 18.014529,10.264407 17.596902,10.018305 17.141986,9.8318644 L 16.858597,7.8555932 C 16.836224,7.6766102 16.679614,7.5423729 16.493173,7.5423729 h -2.983051 c -0.186441,0 -0.343051,0.1342373 -0.365424,0.3132203 l -0.28339,1.9762712 C 12.406393,10.018305 11.988766,10.271864 11.600969,10.562712 L 9.7440201,9.8169492 c -0.1715254,-0.067119 -0.3654238,0 -0.4549153,0.1640677 L 7.7975794,12.561356 c -0.096949,0.164068 -0.052203,0.365424 0.089492,0.477288 l 1.5735593,1.230509 C 9.4307997,14.507797 9.4084269,14.753898 9.4084269,15 c 0,0.246102 0.022373,0.492203 0.052203,0.730847 l -1.5735593,1.230509 c -0.1416949,0.111864 -0.178983,0.31322 -0.089492,0.477288 l 1.4915254,2.580339 c 0.089491,0.164068 0.2908475,0.223729 0.4549153,0.164068 l 1.8569487,-0.745763 c 0.387797,0.298305 0.805424,0.544407 1.260339,0.730848 l 0.28339,1.976271 c 0.02237,0.178983 0.178983,0.31322 0.365424,0.31322 h 2.983051 c 0.186441,0 0.343051,-0.134237 0.365424,-0.31322 l 0.283389,-1.976271 c 0.454916,-0.186441 0.872543,-0.44 1.260339,-0.730848 l 1.85695,0.745763 c 0.171525,0.06712 0.365423,0 0.454915,-0.164068 l 1.491525,-2.580339 c 0.08949,-0.164068 0.0522,-0.365424 -0.08949,-0.477288 z m -5.541017,1.879322 c -1.439322,0 -2.610169,-1.170847 -2.610169,-2.610169 0,-1.439322 1.170847,-2.610169 2.610169,-2.610169 1.439322,0 2.61017,1.170847 2.61017,2.610169 0,1.439322 -1.170848,2.610169 -2.61017,2.610169 z"
     id="path4"
     inkscape:connector-curvature="0"
     style="stroke-width:0.74576271;fill:#969696;fill-opacity:1" />
</svg>
