<?xml version="1.0" encoding="UTF-8" standalone="no"?>
<svg
   xmlns:dc="http://purl.org/dc/elements/1.1/"
   xmlns:cc="http://creativecommons.org/ns#"
   xmlns:rdf="http://www.w3.org/1999/02/22-rdf-syntax-ns#"
   xmlns:svg="http://www.w3.org/2000/svg"
   xmlns="http://www.w3.org/2000/svg"
   xmlns:xlink="http://www.w3.org/1999/xlink"
   xmlns:sodipodi="http://sodipodi.sourceforge.net/DTD/sodipodi-0.dtd"
   xmlns:inkscape="http://www.inkscape.org/namespaces/inkscape"
   height="30"
   viewBox="0 0 30 30"
   width="30"
   version="1.1"
   id="svg10"
   sodipodi:docname="focus.svg"
   style="fill:#000000"
   inkscape:version="0.92.2 5c3e80d, 2017-08-06"
   inkscape:export-filename="/home/iras/.local/share/yakuake/skins/miracle/title/focus_down.png"
   inkscape:export-xdpi="96"
   inkscape:export-ydpi="96">
  <metadata
     id="metadata14">
    <rdf:RDF>
      <cc:Work
         rdf:about="">
        <dc:format>image/svg+xml</dc:format>
        <dc:type
           rdf:resource="http://purl.org/dc/dcmitype/StillImage" />
        <dc:title></dc:title>
      </cc:Work>
    </rdf:RDF>
  </metadata>
  <sodipodi:namedview
     pagecolor="#ffffff"
     bordercolor="#666666"
     borderopacity="1"
     objecttolerance="10"
     gridtolerance="10"
     guidetolerance="10"
     inkscape:pageopacity="0"
     inkscape:pageshadow="2"
     inkscape:window-width="3840"
     inkscape:window-height="2096"
     id="namedview12"
     showgrid="true"
     inkscape:pagecheckerboard="true"
     inkscape:showpageshadow="false"
     inkscape:zoom="27.812867"
     inkscape:cx="18.599373"
     inkscape:cy="7.6828949"
     inkscape:window-x="0"
     inkscape:window-y="30"
     inkscape:window-maximized="1"
     inkscape:current-layer="svg10" />
  <defs
     id="defs3">
    <path
       d="M 0,0 H 24 V 24 H 0 Z"
       id="a"
       inkscape:connector-curvature="0" />
  </defs>
  <clipPath
     id="b">
    <use
       overflow="visible"
       xlink:href="#a"
       id="use5"
       style="overflow:visible"
       x="0"
       y="0"
       width="100%"
       height="100%" />
  </clipPath>
  <path
     clip-path="url(#b)"
     d="m 12,17 c 1.1,0 2,-0.9 2,-2 0,-1.1 -0.9,-2 -2,-2 -1.1,0 -2,0.9 -2,2 0,1.1 0.9,2 2,2 z M 18,8 H 17 V 6 C 17,3.24 14.76,1 12,1 9.24,1 7,3.24 7,6 V 8 H 6 C 4.9,8 4,8.9 4,10 v 10 c 0,1.1 0.9,2 2,2 h 12 c 1.1,0 2,-0.9 2,-2 V 10 C 20,8.9 19.1,8 18,8 Z M 8.9,6 c 0,-1.71 1.39,-3.1 3.1,-3.1 1.71,0 3.1,1.39 3.1,3.1 V 8 H 8.9 Z M 18,20 H 6 V 10 h 12 z"
     id="path8"
     style="fill:#ffffff;fill-opacity:1"
     inkscape:connector-curvature="0"
     transform="matrix(0.63702993,0,0,0.63702993,7.3556408,7.6741558)" />
  <path
     inkscape:connector-curvature="0"
     d="m 15,18.503665 c 0.700733,0 1.27406,-0.573327 1.27406,-1.27406 0,-0.700733 -0.573327,-1.27406 -1.27406,-1.27406 -0.700733,0 -1.27406,0.573327 -1.27406,1.27406 0,0.700733 0.573327,1.27406 1.27406,1.27406 z m 3.82218,-5.73327 h -0.63703 v -1.27406 c 0,-1.7582022 -1.426947,-3.1851493 -3.18515,-3.1851493 -1.758203,0 -3.18515,1.4269471 -3.18515,3.1851493 h 1.210357 c 0,-1.089321 0.885472,-1.9747924 1.974793,-1.9747924 1.089321,0 1.974793,0.8854714 1.974793,1.9747924 v 1.27406 H 11.17782 c -0.700733,0 -1.2740595,0.573327 -1.2740595,1.27406 v 6.370299 c 0,0.700733 0.5733265,1.27406 1.2740595,1.27406 h 7.64436 c 0.700733,0 1.274059,-0.573327 1.274059,-1.27406 v -6.370299 c 0,-0.700733 -0.573326,-1.27406 -1.274059,-1.27406 z m 0,7.644359 h -7.64436 v -6.370299 h 7.64436 z"
     id="path5773"
     style="fill:#ffffff;fill-opacity:1;stroke-width:0.63702995" />
</svg>
