<?xml version="1.0" encoding="UTF-8" standalone="no"?>
<svg
   xmlns:dc="http://purl.org/dc/elements/1.1/"
   xmlns:cc="http://creativecommons.org/ns#"
   xmlns:rdf="http://www.w3.org/1999/02/22-rdf-syntax-ns#"
   xmlns:svg="http://www.w3.org/2000/svg"
   xmlns="http://www.w3.org/2000/svg"
   xmlns:sodipodi="http://sodipodi.sourceforge.net/DTD/sodipodi-0.dtd"
   xmlns:inkscape="http://www.inkscape.org/namespaces/inkscape"
   viewBox="0 0 22 22"
   version="1.1"
   id="svg4"
   sodipodi:docname="lock.svg"
   inkscape:version="0.92.2 5c3e80d, 2017-08-06"
   inkscape:export-filename="/home/iras/.local/share/yakuake/skins/miracle/tabs/lock.png"
   inkscape:export-xdpi="96"
   inkscape:export-ydpi="96">
  <metadata
     id="metadata10">
    <rdf:RDF>
      <cc:Work
         rdf:about="">
        <dc:format>image/svg+xml</dc:format>
        <dc:type
           rdf:resource="http://purl.org/dc/dcmitype/StillImage" />
        <dc:title></dc:title>
      </cc:Work>
    </rdf:RDF>
  </metadata>
  <defs
     id="defs8" />
  <sodipodi:namedview
     pagecolor="#ffffff"
     bordercolor="#666666"
     borderopacity="1"
     objecttolerance="10"
     gridtolerance="10"
     guidetolerance="10"
     inkscape:pageopacity="0"
     inkscape:pageshadow="2"
     inkscape:window-width="3840"
     inkscape:window-height="2096"
     id="namedview6"
     showgrid="true"
     inkscape:pagecheckerboard="true"
     inkscape:zoom="42.909091"
     inkscape:cx="5.433436"
     inkscape:cy="6.6601649"
     inkscape:window-x="0"
     inkscape:window-y="30"
     inkscape:window-maximized="1"
     inkscape:current-layer="svg4">
    <inkscape:grid
       type="xygrid"
       id="grid817" />
  </sodipodi:namedview>
  <path
     inkscape:connector-curvature="0"
     d="M 14,9.25 H 13.5 V 8.2500002 c 0,-1.3800001 -1.12,-2.5000001 -2.5,-2.5000001 -1.38,0 -2.4999998,1.1200001 -2.4999998,2.5000001 V 9.25 H 8.0000001 c -0.55,0 -1,0.45 -1,1 v 5 c 0,0.55 0.45,1 1,1 H 14 c 0.55,0 1,-0.45 1,-1 v -5 c 0,-0.5500001 -0.45,-1 -1,-1 z m -3,4.5 c -0.55,0 -1,-0.45 -1,-1 0,-0.55 0.45,-1 1,-1 0.55,0 1,0.45 1,1 0,0.55 -0.45,1 -1,1 z m 1.55,-4.5 H 9.4500001 V 8.2500002 C 9.4500001,7.3950001 10.145,6.7 11,6.7 c 0.855,0 1.55,0.6950001 1.55,1.5500002 z"
     id="path4-3"
     style="fill:#ffffff;fill-opacity:1;stroke-width:0.5" />
  <path
     style="fill:#ffffff;fill-opacity:1;stroke-width:0.5"
     id="path831"
     d="M 14,9.25 H 13.5 V 8.2500002 c 0,-1.3800001 -1.12,-2.5000001 -2.5,-2.5000001 -1.38,0 -2.4999998,1.1200001 -2.4999998,2.5000001 V 9.25 H 8.0000001 c -0.55,0 -1,0.45 -1,1 v 5 c 0,0.55 0.45,1 1,1 H 14 c 0.55,0 1,-0.45 1,-1 v -5 c 0,-0.5500001 -0.45,-1 -1,-1 z m -3,4.5 c -0.55,0 -1,-0.45 -1,-1 0,-0.55 0.45,-1 1,-1 0.55,0 1,0.45 1,1 0,0.55 -0.45,1 -1,1 z m 1.55,-4.5 H 9.4500001 V 8.2500002 C 9.4500001,7.3950001 10.145,6.7 11,6.7 c 0.855,0 1.55,0.6950001 1.55,1.5500002 z"
     inkscape:connector-curvature="0" />
</svg>
